<?xml version="1.0" encoding="utf-8"?>
<!-- Generator: Adobe Illustrator 24.0.2, SVG Export Plug-In . SVG Version: 6.00 Build 0)  -->
<svg version="1.1" id="Layer_1" xmlns="http://www.w3.org/2000/svg" xmlns:xlink="http://www.w3.org/1999/xlink" x="0px" y="0px"
	 viewBox="0 0 512 512" style="enable-background:new 0 0 512 512;" xml:space="preserve">
<style type="text/css">
	.st0{fill:#FFFFFF;fill-opacity:1.000000e-02;}
	.st1{fill:none;stroke:#000000;stroke-width:14;stroke-linecap:round;stroke-linejoin:round;}
</style>
<g>
	<path d="M85,6.3v333.2v91c0,5.7,4.7,10.4,10.4,10.4h276.2c5.7,0,10.4-4.7,10.4-10.4v-91V6.3H85z M367.5,426.4h-268v-72.4h268V426.4
		z M99.5,339.5V20.7h268v318.7H99.5z"/>
	<path d="M215.4,397.4h36.2c4,0,7.2-3.2,7.2-7.2c0-4-3.2-7.2-7.2-7.2h-36.2c-4,0-7.2,3.2-7.2,7.2
		C208.1,394.2,211.4,397.4,215.4,397.4z"/>
	<path d="M121.2,325h130.4v-79.7H121.2V325z M135.7,259.8h101.4v50.7H135.7V259.8z"/>
	<path d="M142.9,303.2h36.2V267h-36.2V303.2z M157.4,281.5h7.2v7.2h-7.2V281.5z"/>
	<path d="M193.6,303.2h36.2V267h-36.2V303.2z M208.1,281.5h7.2v7.2h-7.2V281.5z"/>
	<path d="M309.5,252.5c-20,0-36.2,16.2-36.2,36.2s16.2,36.2,36.2,36.2c20,0,36.2-16.2,36.2-36.2S329.5,252.5,309.5,252.5z
		 M309.5,310.5c-12,0-21.7-9.7-21.7-21.7s9.7-21.7,21.7-21.7c3.3,0,6.5,0.8,9.3,2.2l-14.4,14.4l10.2,10.2l14.4-14.4
		c1.4,2.8,2.2,6,2.2,9.3C331.3,300.7,321.5,310.5,309.5,310.5z"/>
</g>
<rect x="375" y="398.2" class="st0" width="108.6" height="108.6"/>
<path class="st1" d="M415.7,468.4h45.2v-58.8"/>
<path class="st1" d="M442.8,445.7h-45.2v49.8"/>
<path class="st1" d="M474.5,423.1l-13.6-13.6l-13.6,13.6"/>
<path class="st1" d="M411.2,481.9l-13.6,13.6L384,481.9"/>
</svg>
