<?xml version="1.0" encoding="utf-8"?>
<!-- Generator: Adobe Illustrator 24.0.2, SVG Export Plug-In . SVG Version: 6.00 Build 0)  -->
<svg version="1.1" id="Layer_1" xmlns="http://www.w3.org/2000/svg" xmlns:xlink="http://www.w3.org/1999/xlink" x="0px" y="0px"
	 viewBox="0 0 512 512" style="enable-background:new 0 0 512 512;" xml:space="preserve">
<g>
	<path d="M85,6.3v333.2v91c0,5.7,4.7,10.4,10.4,10.4h276.2c5.7,0,10.4-4.7,10.4-10.4v-91V6.3H85z M367.5,426.4h-268v-72.4h268V426.4
		z M99.5,339.5V20.7h268v318.7H99.5z"/>
	<path d="M215.4,397.4h36.2c4,0,7.2-3.2,7.2-7.2c0-4-3.2-7.2-7.2-7.2h-36.2c-4,0-7.2,3.2-7.2,7.2
		C208.1,394.2,211.4,397.4,215.4,397.4z"/>
	<path d="M121.2,325h130.4v-79.7H121.2V325z M135.7,259.8h101.4v50.7H135.7V259.8z"/>
	<path d="M142.9,303.2h36.2V267h-36.2V303.2z M157.4,281.5h7.2v7.2h-7.2V281.5z"/>
	<path d="M193.6,303.2h36.2V267h-36.2V303.2z M208.1,281.5h7.2v7.2h-7.2V281.5z"/>
	<path d="M309.5,252.5c-20,0-36.2,16.2-36.2,36.2s16.2,36.2,36.2,36.2c20,0,36.2-16.2,36.2-36.2S329.5,252.5,309.5,252.5z
		 M309.5,310.5c-12,0-21.7-9.7-21.7-21.7s9.7-21.7,21.7-21.7c3.3,0,6.5,0.8,9.3,2.2l-14.4,14.4l10.2,10.2l14.4-14.4
		c1.4,2.8,2.2,6,2.2,9.3C331.3,300.7,321.5,310.5,309.5,310.5z"/>
</g>
<g>
	<path d="M472,409c-1.5-1.1-3.3-1.6-5.2-1.4c-2.1,0.3-4.2,1.4-5.7,3.2l-6.4,6.7l-0.2,0.3c-1.4,1.8-1.7,4.1-1.1,6.2l-14.6,18.2
		l-3.1-2.1c1-8.1-0.5-18.4-8.1-24.3c-5.5-4.3-12.2-6.2-18.7-5.4c-2.6,0.3-5.1,1.1-7.5,2.2c-1.1,0.5-1.8,1.6-2,2.7
		c-0.2,1.2,0.2,2.4,1.1,3.2l10.3,9.6l0.4,6.9l-7.3,1.8l-11.7-7.6c-1-0.7-2.3-0.8-3.4-0.3c-1.1,0.5-1.9,1.4-2.2,2.6
		c-1.9,8.7,1.8,17.4,10.1,23.9c4.5,3.5,10.4,4.9,17.3,4c0.5-0.1,1-0.2,1.5-0.2c-0.2,0.3-0.5,0.5-0.7,0.8L397,482.9
		c-5,6.4-3.8,15.6,2.6,20.5l3.8,3c3.1,2.4,6.9,3.5,10.8,3c3.9-0.5,7.3-2.4,9.7-5.5l17.9-22.9c1-1.3,1.7-2.7,2.2-4.1l20.7,18.7
		c0.1,0.1,0.1,0.1,0.2,0.2c2.3,1.8,5.5,2.5,9,2.1c4.3-0.5,8.4-2.7,10.7-5.8c4.2-5.3,4.4-15.6-1.2-20c-0.1-0.1-0.1-0.1-0.2-0.2
		L454,452.3l13.3-17.6c0.4,0,0.9,0,1.3-0.1c1.8-0.2,3.4-1.1,4.5-2.5l5.1-8.1c1.2-1.6,1.8-3.5,1.8-5.4c0-2.2-1-4.3-2.7-5.6L472,409z
		 M436,476.5l-17.9,22.9c-1.2,1.5-2.9,2.5-4.9,2.8s-3.9-0.3-5.4-1.5l-3.8-3c-3.2-2.5-3.8-7.1-1.3-10.3l17.9-22.9
		c1.2-1.5,2.9-2.5,4.9-2.8c0.6-0.1,1.1-0.1,1.7,0l10.3,9.3C437.7,472.9,437.3,474.9,436,476.5z M478.9,487.5c-1.2,1.5-3.5,2.7-5.9,3
		c-1.5,0.2-2.8,0-3.5-0.5l-44-39.7c-1.1-1-2.7-1.2-4-0.6c-2.6,1.3-5.5,2.1-8.3,2.5c-4.8,0.6-9-0.3-11.9-2.5c-2.6-2-6.3-5.7-7.4-10.7
		l7.5,4.8c0.8,0.5,1.9,0.7,2.8,0.5l11.8-2.9c1.7-0.4,2.9-2,2.8-3.8l-0.7-11.4c-0.1-0.9-0.5-1.8-1.2-2.5l-6.7-6.2c4.4-0.4,9,1,12.9,4
		c5.3,4.2,6.3,13,5,19.6c-0.3,1.5,0.3,2.9,1.6,3.8l49.3,33C480.8,479.4,481.1,484.7,478.9,487.5z M472.2,419.7l-4.8,7.7
		c-0.1,0-0.1,0-0.2-0.1l-2.6-1.2l-16.7,22.1l-3-2l17.5-21.8l-1.8-2.3c-0.1-0.1-0.1-0.1-0.1-0.2l6-6.3l0.2-0.3
		c0.3-0.4,0.7-0.6,0.9-0.6l5,3.9C472.6,418.9,472.5,419.3,472.2,419.7z"/>
</g>
</svg>
